PathFileType	4	(X/Y/Z)	c:/Users/goper/Files/vsCode/490R/osim_files/C05/C05_ROM.trc
DataRate	CameraRate	NumFrames	NumMarkers	Units                	OrigDataRate	OrigDataStartFrame	OrigNumFrames
250.00	250.00	4	36	mm	250.0	1250	3332
                Frame#	Time	LPSIS			LASIS			LTH1			LTH2			LTH3			LTH4			LLFE			LMFE			LSH1			LSH2			LSH3			LSH4			LLMAL			LMMAL			LCAL			LMTP5			LTOE			LMTP1			RPSIS			RASIS			RTH1			RTH2			RTH3			RTH4			RLFE			RMFE			RSH1			RSH2			RSH3			RSH4			RLMAL			RMMAL			RCAL			RMTP1			RTOE			RMTP5		
		X1	Y1	Z1	X2	Y2	Z2	X3	Y3	Z3	X4	Y4	Z4	X5	Y5	Z5	X6	Y6	Z6	X7	Y7	Z7	X8	Y8	Z8	X9	Y9	Z9	X10	Y10	Z10	X11	Y11	Z11	X12	Y12	Z12	X13	Y13	Z13	X14	Y14	Z14	X15	Y15	Z15	X16	Y16	Z16	X17	Y17	Z17	X18	Y18	Z18	X19	Y19	Z19	X20	Y20	Z20	X21	Y21	Z21	X22	Y22	Z22	X23	Y23	Z23	X24	Y24	Z24	X25	Y25	Z25	X26	Y26	Z26	X27	Y27	Z27	X28	Y28	Z28	X29	Y29	Z29	X30	Y30	Z30	X31	Y31	Z31	X32	Y32	Z32	X33	Y33	Z33	X34	Y34	Z34	X35	Y35	Z35	X36	Y36	Z36

1250	4.99600	-402.69589	1052.76428	473.14307	-200.72052	1013.30927	425.92169	-320.31622	709.05756	343.62170	-309.40622	647.12744	340.79843	-243.83914	716.16675	338.56595	-242.77814	654.58698	337.07135	-262.16605	545.45160	338.67908	-261.59418	519.18384	450.34787	-370.62314	381.01703	304.89587	-370.63901	336.78650	300.56854	-308.16687	376.74988	288.22400	-318.36560	333.82501	287.40558	-358.43958	97.72699	283.27338	-329.15259	107.83587	366.92426	-415.73682	69.43815	333.27994	-221.15454	41.18143	245.69708	-181.29495	66.38692	303.58017	-192.98335	45.91860	352.00671	-405.91254	1067.07715	579.74280	-221.92398	1038.20532	654.12024	-338.63733	700.43628	712.82111	-327.92630	639.04889	703.97009	-264.05453	704.82367	724.12500	-264.64258	642.22070	714.79572	-269.13745	533.00879	687.93811	-274.51724	515.63422	577.37152	-364.94141	381.84305	699.51581	-364.30063	333.82019	694.78705	-304.29642	373.37646	699.76599	-311.59302	327.67197	694.82233	-365.17899	94.98908	651.79041	-342.90457	111.65231	570.01300	-427.39349	68.69469	599.27808	-211.42613	42.71712	567.64758	-190.94080	64.53755	616.10583	-238.22061	32.83171	680.54865
1251	5.00000	-402.01044	1052.55334	472.81161	-200.04808	1013.58069	425.30768	-319.81369	709.16052	343.26434	-308.87421	647.26904	340.42599	-243.36549	716.17560	338.11819	-242.25954	654.64453	336.59024	-261.75797	545.45361	338.37970	-261.01660	519.20917	450.07455	-370.43246	381.01727	304.74127	-370.41104	336.83649	300.40955	-307.92465	376.72504	288.02512	-318.12848	333.82889	287.22375	-358.38745	97.75879	283.25677	-329.07959	107.87517	366.89471	-415.72345	69.47697	333.27979	-221.12926	41.18574	245.67085	-181.26860	66.36787	303.57077	-192.95523	45.91387	352.02017	-405.18866	1066.80811	579.48633	-220.94316	1038.30457	653.61011	-337.55026	700.43683	712.44025	-327.02759	639.10803	703.62073	-263.09573	704.80609	723.60565	-263.54865	642.23761	714.36505	-268.39291	532.94904	687.57916	-273.85904	515.50970	577.02356	-364.30569	381.93204	699.27802	-363.74081	333.92545	694.60059	-303.62967	373.38297	699.47961	-311.06195	327.68329	694.55786	-365.10175	95.04571	651.73608	-342.83493	111.67741	569.93378	-427.35724	68.72120	599.25610	-211.41891	42.69487	567.63507	-190.93599	64.50765	616.08423	-238.20447	32.85622	680.53217
1252	5.00400	-401.47662	1052.36279	472.54492	-199.33966	1013.85718	424.65363	-319.27237	709.28009	342.91650	-308.44110	647.34711	340.09167	-242.80421	716.21820	337.64731	-241.79022	654.63007	336.15207	-261.29681	545.50708	338.22028	-260.49976	519.19098	449.72845	-370.22571	381.02631	304.57861	-370.41928	336.69968	300.41971	-307.66299	376.67798	287.82797	-317.93750	333.77478	287.05173	-358.37186	97.77778	283.23923	-329.02966	107.88824	366.85480	-415.58844	69.48335	333.20660	-221.13994	41.16182	245.64726	-181.26054	66.32227	303.55753	-192.87752	45.92137	351.97897	-404.30759	1066.52686	579.18585	-219.87029	1038.41858	653.00238	-336.55051	700.50067	712.18329	-325.78998	639.02112	703.40173	-261.95499	704.81702	723.03876	-262.53473	642.19977	713.89484	-267.54858	532.86096	687.11810	-273.09647	515.44086	576.61310	-363.66891	382.02924	699.05511	-363.14743	333.98224	694.37286	-303.14050	373.37317	699.04852	-310.46027	327.78195	694.16425	-365.07108	95.08370	651.67010	-342.81720	111.68242	569.83087	-427.34790	68.73456	599.22839	-211.37321	42.66236	567.59076	-190.86389	64.48339	616.03900	-238.19775	32.86839	680.50470
1253	5.00800	-400.98798	1052.15857	472.30087	-198.78511	1014.10938	424.02304	-318.73248	709.35114	342.51096	-307.98456	647.39246	339.68906	-242.29219	716.19855	337.11804	-241.38551	654.61401	335.74426	-261.01208	545.42657	337.74768	-260.03860	519.22565	449.43527	-370.00558	381.02676	304.36404	-369.98322	336.83606	300.11786	-307.43948	376.61929	287.65866	-317.67227	333.76102	286.87384	-358.36746	97.78767	283.22336	-329.04755	107.89211	366.79819	-415.61292	69.51775	333.20859	-221.13571	41.14157	245.62180	-181.23576	66.28654	303.51849	-192.50566	46.24598	352.05130	-403.51974	1066.21851	578.84161	-218.99326	1038.50391	652.46228	-335.53796	700.49786	711.66119	-325.55856	638.93695	703.09332	-260.89514	704.81384	722.56952	-261.60818	642.13550	713.38556	-266.84891	532.75586	686.70636	-272.49948	515.29144	576.25964	-363.13605	382.05713	698.75555	-362.64984	334.04282	694.17889	-302.63672	373.31897	698.79205	-310.03668	327.75381	693.94464	-365.04813	95.10435	651.61407	-342.77945	111.67513	569.75812	-427.38690	68.76360	599.20782	-211.38493	42.61625	567.58380	-190.86398	64.43129	616.02283	-238.20946	32.85924	680.48029
